HIERARCHY
ROOT Hips
{
  OFFSET 267.745 86.9975 -272.335
  CHANNELS 6 Xposition Yposition Zposition Zrotation Xrotation Yrotation
  JOINT LeftUpLeg
  {
    OFFSET 8.64259 1.95398 -2.38835
    CHANNELS 3 Zrotation Xrotation Yrotation
    JOINT LeftLeg
    {
      OFFSET 43.7702 0 0
      CHANNELS 3 Zrotation Xrotation Yrotation
      JOINT LeftFoot
      {
        OFFSET 40.6238 0 0
        CHANNELS 3 Zrotation Xrotation Yrotation
        JOINT LeftToeBase
        {
          OFFSET 12.7242 0 0
          CHANNELS 3 Zrotation Xrotation Yrotation
          End Site
          {
            OFFSET 0 0 0
          }
        }
      }
    }
  }
  JOINT RightUpLeg
  {
    OFFSET -8.2249 1.95398 -2.59336
    CHANNELS 3 Zrotation Xrotation Yrotation
    JOINT RightLeg
    {
      OFFSET 43.5653 0 0
      CHANNELS 3 Zrotation Xrotation Yrotation
      JOINT RightFoot
      {
        OFFSET 40.6238 0 0
        CHANNELS 3 Zrotation Xrotation Yrotation
        JOINT RightToeBase
        {
          OFFSET 12.7242 0 0
          CHANNELS 3 Zrotation Xrotation Yrotation
          End Site
          {
            OFFSET 0 0 0
          }
        }
      }
    }
  }
  JOINT Spine
  {
    OFFSET 0.165834 0.87714 6.61349
    CHANNELS 3 Zrotation Xrotation Yrotation
    JOINT Spine1
    {
      OFFSET 7.38963 1.71661e-005 0
      CHANNELS 3 Zrotation Xrotation Yrotation
      JOINT Spine2
      {
        OFFSET 11.9445 1.14441e-005 0
        CHANNELS 3 Zrotation Xrotation Yrotation
        JOINT Spine3
        {
          OFFSET 14.7254 4.19617e-005 0
          CHANNELS 3 Zrotation Xrotation Yrotation
          JOINT Spine4
          {
            OFFSET 10.9679 0 0
            CHANNELS 3 Zrotation Xrotation Yrotation
            JOINT RightShoulder
            {
              OFFSET 2.46616 -1.6653 3.69651
              CHANNELS 3 Zrotation Xrotation Yrotation
              JOINT RightArm
              {
                OFFSET 13.0012 0 0
                CHANNELS 3 Zrotation Xrotation Yrotation
                JOINT RightForeArm
                {
                  OFFSET 28.7848 1.52588e-005 0
                  CHANNELS 3 Zrotation Xrotation Yrotation
                  JOINT RightHand
                  {
                    OFFSET 26.5688 1.52588e-005 0
                    CHANNELS 3 Zrotation Xrotation Yrotation
                    End Site
                    {
                      OFFSET 0 0 0
                    }
                  }
                }
              }
            }
            JOINT LeftShoulder
            {
              OFFSET 2.38034 -1.29275 -3.7523
              CHANNELS 3 Zrotation Xrotation Yrotation
              JOINT LeftArm
              {
                OFFSET 16.3182 6.10352e-005 0
                CHANNELS 3 Zrotation Xrotation Yrotation
                JOINT LeftForeArm
                {
                  OFFSET 27.0901 0 0
                  CHANNELS 3 Zrotation Xrotation Yrotation
                  JOINT LeftHand
                  {
                    OFFSET 24.5451 1.52588e-005 0
                    CHANNELS 3 Zrotation Xrotation Yrotation
                    End Site
                    {
                      OFFSET 0 0 0
                    }
                  }
                }
              }
            }
            JOINT Neck
            {
              OFFSET 5.0226 -0.0266342 0
              CHANNELS 3 Zrotation Xrotation Yrotation
              JOINT Head
              {
                OFFSET 6.69364 2.86102e-005 0
                CHANNELS 3 Zrotation Xrotation Yrotation
                End Site
                {
                  OFFSET 0 0 0
                }
              }
            }
          }
        }
      }
    }
  }
}
MOTION
Frames:	17
Frame Time:	0.0416667
-50.3608 80.493 32.8207 -72.0192 -85.0025 -75.5606 -174.485 27.3904 117.571 -28.6713 17.8618 6.25048 35.5545 -12.7561 -8.85542 64.6923 -0.357577 18.3215 168.094 55.8594 65.0084 -104.861 -26.7013 -2.11408 51.7601 8.87029 13.8425 56.7221 -4.14795 16.8719 -0.788327 9.5752 -89.2753 7.7296 -1.25835 1.49662 -3.94165 -1.19125 1.55055 -26.4778 -1.64994 1.04926 -6.46517 -1.64994 1.04927 104.192 -27.6716 -77.8 -6.86358 6.5561 18.302 -2.63002 -3.36619 -37.9912 -6.17911 0.0590585 -6.87274 -80.3462 -21.542 91.1538 3.00607 -5.33139 26.0804 -8.07674 -11.3438 -26.1241 8.33298 -0.34808 -7.11826 -2.91281 7.46816 -17.0229 0.817087 10.6689 30.2016 
-43.7547 79.0066 33.2176 -73.7832 -83.7782 -78.212 -173.773 31.4254 113.765 -40.7794 15.078 4.68493 52.3648 -4.09144 4.54088 59.6133 -1.06045 15.4848 150.344 61.076 85.5052 -106.104 -32.6319 -1.10987 52.5867 8.24299 12.8333 58.7387 -3.73226 20.3298 -0.930457 9.98804 -89.2349 6.90577 -1.5307 1.57131 -4.76531 -1.46008 1.63714 -27.3038 -1.93215 1.03861 -7.29113 -1.93214 1.03861 104.031 -32.604 -78.4685 -1.35646 4.43137 18.7645 -1.33937 -1.64859 -36.8317 -3.67198 0.0437099 -7.72808 -79.407 -31.2092 93.8381 2.0767 -9.00488 22.5924 -9.2168 -13.7046 -30.6868 8.43969 -0.372274 -7.34783 6.83219 6.94734 -21.6496 -4.94859 10.9281 34.4291 
-38.7252 77.4676 32.1678 -41.0289 -85.5871 -48.1817 -177.355 40.7375 110.287 -52.9188 16.0277 3.64977 52.4938 -3.7606 3.93347 61.9987 -1.2776 13.968 132.324 61.8845 106.455 -98.7062 -36.6991 1.75492 54.3724 6.69643 9.52884 61.9708 -3.69389 21.4347 -1.17701 10.384 -89.2589 6.11694 -2.03893 1.52094 -5.55341 -1.97002 1.6092 -28.0986 -2.40172 0.837655 -8.08598 -2.40172 0.837647 105.545 -40.1187 -76.1318 3.34082 6.27048 12.2659 -0.515268 -1.23489 -31.2371 -1.49467 -0.00593842 -7.53821 -80.4163 -42.4352 92.5682 3.59087 -10.911 9.43205 -8.23815 -13.8287 -27.6675 9.65953 -0.405234 -7.34199 16.5387 4.73666 -22.3886 -7.49764 10.0245 33.4102 
-34.184 76.4987 31.9708 29.3451 -83.3836 20.2543 -177.764 46.9975 105.301 -57.0507 19.8431 2.18042 57.733 0.702861 6.50302 59.9449 -1.51357 12.4808 127.876 60.411 113.684 -84.4909 -35.1372 6.65581 53.7043 6.28575 5.37898 63.6734 -3.84817 22.0155 -1.29509 10.3769 -89.5109 6.13026 -2.38112 1.03823 -5.539 -2.33311 1.14208 -28.0913 -2.583 0.274192 -8.0787 -2.58301 0.274182 105.546 -46.6201 -76.6635 8.12851 6.2926 4.65391 -2.56122 -7.57734 -21.6635 4.70812 -0.14592 -7.62824 -83.9501 -46.9456 87.2468 2.89723 -10.0468 -8.53265 -5.35199 -9.07095 -17.0783 7.60295 -0.405301 -8.00154 15.7385 2.95591 -16.9878 -2.48488 7.98118 26.8099 
-29.1195 76.5876 32.4626 67.4528 -82.9869 54.2063 -171.226 45.1393 95.079 -58.7549 25.8833 -0.866082 60.0347 5.13984 16.3383 58.0721 -1.80814 10.3931 142.316 58.9632 102.063 -76.6035 -32.6976 7.77877 54.5489 4.14514 -0.825503 15.991 0.136883 15.0077 -1.10447 10.8401 -89.6264 5.19967 -2.05229 0.77325 -6.46995 -2.01626 0.862853 -29.018 -2.18976 0.120426 -9.00532 -2.18976 0.120431 104.041 -51.157 -79.2832 9.53383 5.39857 -3.30354 -4.05768 -18.4484 -14.2168 11.6664 -0.375083 -8.31807 -87.8049 -50.1622 81.7965 1.07855 -8.26968 -24.9966 -4.03235 -0.973918 -11.7511 6.84743 -0.479798 -9.19485 15.5608 0.312512 -8.40893 0.698034 3.45866 19.8196 
-25.0704 76.4113 32.6511 104.305 -78.5733 86.4846 -168.438 42.4096 86.711 -62.4511 25.6027 -2.07763 60.638 5.20085 14.5139 55.2868 -2.09107 7.4745 156.099 55.3396 91.5796 -79.7872 -23.9374 3.81667 61.0587 -10.7027 -21.7049 45.5989 -3.12199 18.134 -1.08169 11.3191 -89.8952 4.2368 -2.11871 0.219961 -7.43247 -2.10697 0.313034 -29.9812 -2.08682 -0.427251 -9.96852 -2.08682 -0.427258 101.434 -51.8922 -83.2844 10.0362 2.96773 -9.22687 -2.30441 -21.018 -10.7402 9.23438 -0.229038 -7.28278 -90.0157 -50.5215 78.5557 -2.94038 -4.08839 -36.4473 -2.60566 7.26622 -14.9913 6.64158 -0.498273 -9.5363 13.0242 -2.27821 -0.784988 4.38102 -1.04074 13.0542 
-21.1048 75.9727 32.6423 111.682 -74.7175 90.9957 -167.163 41.2847 80.0754 -65.4407 27.0711 -2.72587 60.6617 6.29905 17.5545 54.7183 -2.1751 6.46864 169.739 57.0312 80.3556 -85.0279 -16.4369 -0.656179 59.232 -5.99628 -15.9992 57.2253 -4.83942 12.7465 -0.890147 11.3946 -90.2382 4.0786 -1.87485 -0.456621 -7.59109 -1.89312 -0.373632 -30.1342 -1.65094 -0.999095 -10.1215 -1.65093 -0.999106 100.709 -50.5972 -84.4239 10.0317 2.63591 -15.5024 -0.303525 -13.9987 -11.5659 2.71741 -0.0194699 -4.75893 -90.5467 -50.9657 77.8625 -4.43951 1.58281 -42.6036 0.10744 11.2236 -24.7727 6.6745 -0.469858 -9.1559 9.10365 -4.32233 2.67245 7.26096 -3.78446 10.1518 
-17.3784 75.8966 32.8613 109.22 -74.1968 91.6547 -167.945 42.6469 79.4776 -68.8379 26.4289 -1.88394 62.2335 9.05035 21.117 55.1502 -2.15126 6.89082 176.041 58.2317 77.38 -86.5359 -16.0109 -1.91699 52.5509 2.89813 -8.08338 65.6147 -6.69034 10.1021 -0.415215 11.21 -90.9676 4.44201 -1.22364 -1.88407 -7.2296 -1.30537 -1.82843 -29.7556 -0.60097 -2.1646 -9.74291 -0.600955 -2.1646 100.147 -50.9906 -85.2784 9.48638 6.70658 -22.8279 0.756649 -5.77119 -13.9729 -1.78897 -0.0146189 -5.82678 -91.0348 -53.3138 77.6609 -3.40485 5.91209 -43.6699 3.05446 10.9652 -35.2996 8.11803 -0.465513 -8.4579 6.41701 -4.95856 5.97626 7.76046 -5.26822 7.20583 
-14.3629 76.8141 33.3028 111.297 -73.8867 97.5752 -170.242 40.6464 81.3701 -68.7602 26.7064 -1.1513 64.0618 12.9087 26.2682 54.3414 -2.22459 5.82146 174.509 54.3069 80.6096 -84.3548 -12.8446 -1.81608 54.9371 0.727984 -8.6515 66.8107 -7.11792 9.14388 -0.16632 11.1515 -91.5491 4.54791 -0.964217 -3.02672 -7.1261 -1.09644 -2.98141 -29.633 -0.0104951 -3.17644 -9.62035 -0.0105002 -3.17645 99.1553 -50.7319 -86.8226 10.54 7.62238 -28.1806 2.81008 2.29914 -18.5157 -3.77302 0.0218526 -6.88354 -90.412 -53.0552 78.5064 -6.28106 8.02912 -42.138 6.21606 10.6069 -41.1503 10.4331 -0.47721 -7.81469 5.4649 -4.6507 4.40401 7.08695 -4.48924 9.14875 
-12.2767 78.2661 34.1059 116.019 -76.4745 101.046 -168.699 36.9631 79.6078 -65.8057 25.484 -2.19004 64.0826 13.2886 27.1512 54.5868 -2.35056 4.81172 177.732 50.2016 78.8557 -81.2812 -9.76938 -2.73238 59.5666 -4.51782 -11.8707 66.6495 -7.15177 8.84318 0.0542785 11.1294 -91.3211 4.60264 -0.431062 -2.58597 -7.07077 -0.544417 -2.56452 -29.5854 0.365772 -2.59601 -9.5728 0.365768 -2.59601 99.0377 -49.8912 -87.0545 13.3954 6.78725 -32.5877 2.59106 2.40173 -21.3063 -1.93053 0.0060276 -8.04753 -89.7691 -53.0054 79.428 -8.72024 9.3415 -40.1108 9.79169 12.3791 -43.6544 11.7933 -0.576812 -8.29065 7.0036 -4.63271 2.08928 4.12554 -4.18339 10.7308 
-10.507 79.9643 34.5389 111.189 -77.0982 97.0312 -169.485 36.3829 79.2769 -63.4509 23.6567 -2.22606 63.7964 12.0391 24.6751 54.1017 -2.35193 4.48727 177.97 48.6758 78.0645 -78.2168 -8.11191 -2.79307 62.7213 -5.46436 -8.06059 61.5725 -6.60745 7.33023 0.119567 10.8932 -91.316 5.07708 -0.304047 -2.57608 -6.59634 -0.417094 -2.56022 -29.1115 0.483966 -2.54843 -9.09882 0.483972 -2.54843 99.0101 -49.4556 -87.1245 15.9065 4.86885 -34.2452 -1.26163 -4.66678 -24.9438 -0.532324 -0.0276269 -8.59761 -89.7387 -53.297 79.5293 -10.2271 10.3068 -36.9827 12.5248 14.0926 -45.4563 13.2155 -0.484694 -7.25187 8.00158 -4.57506 1.47957 2.56464 -4.16961 10.6003 
-9.09032 82.0488 35.1346 110.261 -78.1067 98.4472 -170.343 33.9482 81.2413 -59.4694 23.5167 -2.27407 63.9471 12.3134 25.3178 53.0628 -2.37621 3.4464 178.537 46.7475 78.6433 -74.8336 -5.22369 -2.91055 60.8875 0.0746825 1.66895 58.1595 -5.90226 7.69691 0.198843 10.7643 -91.3792 5.33515 -0.174702 -2.70512 -6.33858 -0.293541 -2.69482 -28.852 0.646089 -2.63269 -8.83934 0.646085 -2.63269 98.6832 -50.3934 -87.5742 15.6477 1.68829 -35.5537 -5.44438 -12.7767 -26.5941 -2.43527 0.018429 -7.8853 -89.6972 -53.7032 79.6688 -11.7475 10.0698 -33.2931 14.2174 16.11 -45.3537 13.014 -0.309159 -5.98405 9.28384 -4.01423 0.524229 0.586633 -3.57509 11.3752 
-7.6863 84.2203 35.7105 110.409 -76.7055 100.601 -172.58 31.1927 82.661 -55.8521 22.6874 -1.62885 64.0498 11.4596 23.0229 51.2067 -2.28098 2.75897 176.109 42.4168 79.7668 -69.7683 -5.30231 -2.05779 61.5722 0.0295164 2.28061 55.5367 -5.64201 6.31341 0.019181 10.6663 -91.4592 5.52531 -0.56925 -2.85327 -6.14857 -0.694216 -2.82549 -28.6587 0.314212 -2.89245 -8.64605 0.314204 -2.89246 98.4266 -51.2 -87.9154 16.2749 -0.472275 -35.1056 -9.98806 -21.1052 -28.2085 -8.02803 0.0624493 -6.47963 -89.8628 -54.1656 79.521 -13.6287 9.13484 -30.4578 14.6489 19.0619 -42.324 12.0798 -0.276553 -5.83699 10.5035 -3.65323 -0.829861 -1.59776 -3.10127 12.7099 
-6.75299 86.3096 36.5362 111.597 -76.7734 102.865 -173.195 27.8037 83.8734 -51.3954 22.8044 -1.60301 64.0325 10.5037 21.1933 49.9077 -2.22495 1.93259 175.776 38.4486 80.2926 -65.0451 -3.74411 -1.92579 62.2474 0.863433 5.82356 51.7578 -5.2397 3.65277 0.0108794 10.5882 -91.3431 5.68369 -0.539217 -2.62564 -5.98974 -0.654216 -2.5994 -28.5037 0.274521 -2.66632 -8.49102 0.274515 -2.66631 98.7499 -52.8979 -87.3115 16.3812 -1.90036 -33.1396 -12.8548 -24.5989 -30.5607 -9.60497 -0.138567 -3.64471 -89.6573 -53.7536 79.736 -15.6077 8.43765 -28.9406 15.521 23.9312 -38.6766 10.0716 -0.221365 -5.56164 11.6058 -3.56048 -2.5966 -3.4031 -2.77555 12.9018 
-6.09148 88.2699 37.3841 111.65 -77.3001 103.279 -173.442 24.6158 84.3881 -46.4322 22.2101 -1.78982 63.7888 9.33054 19.2233 47.9211 -2.07662 1.14348 176.22 35.2962 80.3116 -60.4905 -3.05441 -2.12532 61.3967 2.20077 8.22447 49.8678 -4.94233 2.61627 -0.0346324 10.4503 -91.1653 5.96211 -0.558751 -2.27521 -5.71067 -0.658323 -2.24845 -28.2298 0.15067 -2.33794 -8.2172 0.150673 -2.33794 98.8454 -53.4813 -87.1339 17.4412 -1.94305 -30.1819 -11.7762 -22.4938 -30.438 -9.14215 -0.0682047 -4.54194 -89.248 -54.1144 80.3924 -16.7674 7.77278 -27.3501 15.4712 27.9772 -35.2916 7.60833 -0.174023 -5.34088 11.7658 -3.19681 -2.85149 -3.96209 -2.42033 11.6467 
-5.51797 89.996 38.1388 110.733 -76.9427 102.691 -174.406 21.6027 84.4882 -41.3851 21.5125 -1.57394 62.8299 7.92677 18.0948 45.4466 -1.85712 0.149494 175.649 32.1131 80.3089 -55.8908 -2.82791 -1.86411 61.3233 2.56913 8.96133 47.9864 -4.61469 1.47943 -0.197642 10.2834 -90.9201 6.29771 -0.78398 -1.78458 -5.37416 -0.861752 -1.74837 -27.8998 -0.211509 -1.93764 -7.8871 -0.21152 -1.93764 98.863 -55.0286 -87.0163 17.6131 -2.30164 -27.7538 -7.90236 -18.3987 -27.834 -11.2958 -0.0812603 -4.53932 -88.4539 -53.6498 81.4527 -17.2641 7.83323 -24.9781 14.6302 30.481 -32.7731 6.5212 -0.177655 -5.48869 10.1973 -3.14494 -5.87191 -2.75415 -1.59034 12.9798 
-4.89228 91.6385 38.8363 109.491 -75.6569 102.943 -175.587 18.6566 85.361 -36.7786 21.3281 -0.703923 62.2161 7.04142 17.5779 42.9471 -1.59093 -0.997552 174.305 28.3659 81.1887 -50.8423 -1.79332 -1.0476 60.8657 3.24296 10.3392 45.1512 -3.99008 0.895609 -0.327443 10.1078 -90.9033 6.647 -1.03885 -1.73904 -5.02464 -1.11436 -1.69167 -27.5514 -0.468295 -1.97077 -7.53875 -0.468282 -1.97077 99.2574 -55.5755 -86.4113 18.8978 -1.45795 -24.6216 -6.13045 -16.4126 -26.2949 -11.4679 -0.215679 -3.1084 -88.1427 -53.9819 81.9579 -16.9681 7.97131 -23.2505 13.761 33.9262 -30.4502 4.81858 -0.162525 -5.51562 9.64444 -3.34061 -7.40445 -3.53365 -1.55365 13.631 
